<svg xmlns="http://www.w3.org/2000/svg" viewBox="0 0 1280 720" font-family="Inter, -apple-system, sans-serif">
  <defs>
    <clipPath id="iga"><rect width="1280" height="720"/></clipPath>
    <linearGradient id="pinkGrad" x1="0" y1="0" x2="1" y2="0">
      <stop offset="0%" stop-color="#c4005e"/>
      <stop offset="100%" stop-color="#e0007a"/>
    </linearGradient>
    <linearGradient id="reachLine" x1="0" y1="0" x2="1" y2="0">
      <stop offset="0%" stop-color="#c4005e"/>
      <stop offset="100%" stop-color="#e0007a"/>
    </linearGradient>
    <linearGradient id="engLine" x1="0" y1="0" x2="1" y2="0">
      <stop offset="0%" stop-color="#ffc9e3"/>
      <stop offset="100%" stop-color="#c4005e"/>
    </linearGradient>
    <linearGradient id="barGrad" x1="0" y1="0" x2="0" y2="1">
      <stop offset="0%" stop-color="#c4005e"/>
      <stop offset="100%" stop-color="#ffc9e3"/>
    </linearGradient>
  </defs>
  <g clip-path="url(#iga)">

  <!-- Background -->
  <rect width="1280" height="720" fill="#fdf6f9"/>

  <!-- Page header -->
  <rect x="0" y="0" width="1280" height="58" fill="#ffffff" stroke="#fce8f0" stroke-width="1"/>
  <text x="30" y="22" font-size="13" font-weight="800" fill="#c4005e">✦ influxr</text>
  <text x="30" y="40" font-size="10" fill="#94a3b8" letter-spacing="1">INFLUENCER DISCOVERY  &amp;  CAMPAIGN ANALYTICS</text>
  <!-- Tab bar -->
  <text x="280" y="34" font-size="12" fill="#94a3b8">Campaigns</text>
  <rect x="380" y="8" width="106" height="42" fill="#fff0f7"/>
  <text x="433" y="34" font-size="12" font-weight="600" fill="#c4005e" text-anchor="middle">Influencers</text>
  <rect x="380" y="48" width="106" height="2" fill="#c4005e"/>
  <text x="510" y="34" font-size="12" fill="#94a3b8">Contracts</text>
  <text x="620" y="34" font-size="12" fill="#94a3b8">Payments</text>
  <text x="720" y="34" font-size="12" fill="#94a3b8">Analytics</text>
  <!-- Filters -->
  <rect x="920" y="14" width="120" height="30" rx="8" fill="#f8fafc" stroke="#e2e8f0" stroke-width="1"/>
  <text x="980" y="33" font-size="11" fill="#64748b" text-anchor="middle">Niche ▾</text>
  <rect x="1052" y="14" width="120" height="30" rx="8" fill="#f8fafc" stroke="#e2e8f0" stroke-width="1"/>
  <text x="1112" y="33" font-size="11" fill="#64748b" text-anchor="middle">Followers ▾</text>
  <rect x="1184" y="14" width="80" height="30" rx="8" fill="url(#pinkGrad)"/>
  <text x="1224" y="33" font-size="11" fill="#ffffff" text-anchor="middle" font-weight="600">Search</text>

  <!-- ── LEFT: Influencer gallery ── -->
  <!-- Gallery header -->
  <text x="20" y="82" font-size="13" font-weight="700" fill="#1e0a14">Approved Influencers</text>
  <text x="20" y="98" font-size="11" fill="#94a3b8">2,200+ registered  ·  Showing: Fashion &amp; Lifestyle</text>

  <!-- Row 1 of cards: 3 wide -->
  <!-- Card 1 -->
  <rect x="20" y="110" width="188" height="196" rx="12" fill="#ffffff" stroke="#ffc9e3" stroke-width="1.5"/>
  <rect x="20" y="110" width="188" height="86" rx="12" fill="#ffc9e3" opacity="0.3"/>
  <rect x="20" y="164" width="188" height="32" fill="#ffc9e3" fill-opacity="0.3"/>
  <circle cx="114" cy="168" r="34" fill="#ffc9e3" stroke="#ffffff" stroke-width="3"/>
  <text x="114" y="175" font-size="24" fill="#c4005e" text-anchor="middle" font-weight="800">S</text>
  <text x="114" y="222" font-size="12" font-weight="700" fill="#1e0a14" text-anchor="middle">@sophiastyle.uk</text>
  <text x="114" y="238" font-size="10" fill="#94a3b8" text-anchor="middle">London · Fashion</text>
  <line x1="40" y1="248" x2="188" y2="248" stroke="#fce8f0" stroke-width="1"/>
  <text x="60" y="268" font-size="10" fill="#94a3b8" text-anchor="middle">Followers</text>
  <text x="60" y="282" font-size="13" font-weight="700" fill="#1e0a14" text-anchor="middle">84.2K</text>
  <text x="114" y="268" font-size="10" fill="#94a3b8" text-anchor="middle">Eng. Rate</text>
  <text x="114" y="282" font-size="13" font-weight="700" fill="#c4005e" text-anchor="middle">6.8%</text>
  <text x="168" y="268" font-size="10" fill="#94a3b8" text-anchor="middle">Campaigns</text>
  <text x="168" y="282" font-size="13" font-weight="700" fill="#1e0a14" text-anchor="middle">3</text>
  <rect x="40" y="292" width="148" height="6" rx="3" fill="#fce8f0"/>
  <rect x="40" y="292" width="116" height="6" rx="3" fill="url(#pinkGrad)"/>

  <!-- Card 2 -->
  <rect x="220" y="110" width="188" height="196" rx="12" fill="#ffffff" stroke="#fce8f0" stroke-width="1"/>
  <rect x="220" y="110" width="188" height="86" rx="12" fill="#e8d4ff" opacity="0.4"/>
  <rect x="220" y="164" width="188" height="32" fill="#e8d4ff" fill-opacity="0.4"/>
  <circle cx="314" cy="168" r="34" fill="#e8d4ff" stroke="#ffffff" stroke-width="3"/>
  <text x="314" y="175" font-size="24" fill="#7c3aed" text-anchor="middle" font-weight="800">A</text>
  <text x="314" y="222" font-size="12" font-weight="700" fill="#1e0a14" text-anchor="middle">@amberlifestyle</text>
  <text x="314" y="238" font-size="10" fill="#94a3b8" text-anchor="middle">Manchester · Lifestyle</text>
  <line x1="240" y1="248" x2="388" y2="248" stroke="#fce8f0" stroke-width="1"/>
  <text x="260" y="268" font-size="10" fill="#94a3b8" text-anchor="middle">Followers</text>
  <text x="260" y="282" font-size="13" font-weight="700" fill="#1e0a14" text-anchor="middle">41.0K</text>
  <text x="314" y="268" font-size="10" fill="#94a3b8" text-anchor="middle">Eng. Rate</text>
  <text x="314" y="282" font-size="13" font-weight="700" fill="#c4005e" text-anchor="middle">5.2%</text>
  <text x="368" y="268" font-size="10" fill="#94a3b8" text-anchor="middle">Campaigns</text>
  <text x="368" y="282" font-size="13" font-weight="700" fill="#1e0a14" text-anchor="middle">1</text>
  <rect x="240" y="292" width="148" height="6" rx="3" fill="#fce8f0"/>
  <rect x="240" y="292" width="88" height="6" rx="3" fill="url(#pinkGrad)"/>

  <!-- Card 3 -->
  <rect x="420" y="110" width="188" height="196" rx="12" fill="#ffffff" stroke="#fce8f0" stroke-width="1"/>
  <rect x="420" y="110" width="188" height="86" rx="12" fill="#ffd6e0" opacity="0.4"/>
  <rect x="420" y="164" width="188" height="32" fill="#ffd6e0" fill-opacity="0.4"/>
  <circle cx="514" cy="168" r="34" fill="#ffd6e0" stroke="#ffffff" stroke-width="3"/>
  <text x="514" y="175" font-size="24" fill="#be123c" text-anchor="middle" font-weight="800">R</text>
  <text x="514" y="222" font-size="12" font-weight="700" fill="#1e0a14" text-anchor="middle">@rosie.beautyedits</text>
  <text x="514" y="238" font-size="10" fill="#94a3b8" text-anchor="middle">Dublin · Beauty</text>
  <line x1="440" y1="248" x2="588" y2="248" stroke="#fce8f0" stroke-width="1"/>
  <text x="460" y="268" font-size="10" fill="#94a3b8" text-anchor="middle">Followers</text>
  <text x="460" y="282" font-size="13" font-weight="700" fill="#1e0a14" text-anchor="middle">22.7K</text>
  <text x="514" y="268" font-size="10" fill="#94a3b8" text-anchor="middle">Eng. Rate</text>
  <text x="514" y="282" font-size="13" font-weight="700" fill="#c4005e" text-anchor="middle">8.1%</text>
  <text x="568" y="268" font-size="10" fill="#94a3b8" text-anchor="middle">Campaigns</text>
  <text x="568" y="282" font-size="13" font-weight="700" fill="#1e0a14" text-anchor="middle">2</text>
  <rect x="440" y="292" width="148" height="6" rx="3" fill="#fce8f0"/>
  <rect x="440" y="292" width="128" height="6" rx="3" fill="url(#pinkGrad)"/>

  <!-- Row 2 of cards -->
  <!-- Card 4 -->
  <rect x="20" y="322" width="188" height="196" rx="12" fill="#ffffff" stroke="#fce8f0" stroke-width="1"/>
  <rect x="20" y="322" width="188" height="86" rx="12" fill="#d4f5e0" opacity="0.4"/>
  <rect x="20" y="376" width="188" height="32" fill="#d4f5e0" fill-opacity="0.4"/>
  <circle cx="114" cy="380" r="34" fill="#d4f5e0" stroke="#ffffff" stroke-width="3"/>
  <text x="114" y="387" font-size="24" fill="#16a34a" text-anchor="middle" font-weight="800">M</text>
  <text x="114" y="434" font-size="12" font-weight="700" fill="#1e0a14" text-anchor="middle">@maya.outfitdiaries</text>
  <text x="114" y="450" font-size="10" fill="#94a3b8" text-anchor="middle">Birmingham · Fashion</text>
  <line x1="40" y1="460" x2="188" y2="460" stroke="#fce8f0" stroke-width="1"/>
  <text x="60" y="480" font-size="10" fill="#94a3b8" text-anchor="middle">Followers</text>
  <text x="60" y="494" font-size="13" font-weight="700" fill="#1e0a14" text-anchor="middle">118K</text>
  <text x="114" y="480" font-size="10" fill="#94a3b8" text-anchor="middle">Eng. Rate</text>
  <text x="114" y="494" font-size="13" font-weight="700" fill="#64748b" text-anchor="middle">3.4%</text>
  <text x="168" y="480" font-size="10" fill="#94a3b8" text-anchor="middle">Campaigns</text>
  <text x="168" y="494" font-size="13" font-weight="700" fill="#1e0a14" text-anchor="middle">1</text>
  <rect x="40" y="504" width="148" height="6" rx="3" fill="#fce8f0"/>
  <rect x="40" y="504" width="58" height="6" rx="3" fill="#c4005e" opacity="0.5"/>

  <!-- Card 5 -->
  <rect x="220" y="322" width="188" height="196" rx="12" fill="#ffffff" stroke="#fce8f0" stroke-width="1"/>
  <rect x="220" y="322" width="188" height="86" rx="12" fill="#fef9c3" opacity="0.4"/>
  <rect x="220" y="376" width="188" height="32" fill="#fef9c3" fill-opacity="0.4"/>
  <circle cx="314" cy="380" r="34" fill="#fef9c3" stroke="#ffffff" stroke-width="3"/>
  <text x="314" y="387" font-size="24" fill="#ca8a04" text-anchor="middle" font-weight="800">Z</text>
  <text x="314" y="434" font-size="12" font-weight="700" fill="#1e0a14" text-anchor="middle">@zoe_fitlooks</text>
  <text x="314" y="450" font-size="10" fill="#94a3b8" text-anchor="middle">Glasgow · Fitness</text>
  <line x1="240" y1="460" x2="388" y2="460" stroke="#fce8f0" stroke-width="1"/>
  <text x="260" y="480" font-size="10" fill="#94a3b8" text-anchor="middle">Followers</text>
  <text x="260" y="494" font-size="13" font-weight="700" fill="#1e0a14" text-anchor="middle">56.3K</text>
  <text x="314" y="480" font-size="10" fill="#94a3b8" text-anchor="middle">Eng. Rate</text>
  <text x="314" y="494" font-size="13" font-weight="700" fill="#c4005e" text-anchor="middle">7.0%</text>
  <text x="368" y="480" font-size="10" fill="#94a3b8" text-anchor="middle">Campaigns</text>
  <text x="368" y="494" font-size="13" font-weight="700" fill="#1e0a14" text-anchor="middle">4</text>
  <rect x="240" y="504" width="148" height="6" rx="3" fill="#fce8f0"/>
  <rect x="240" y="504" width="112" height="6" rx="3" fill="url(#pinkGrad)"/>

  <!-- Card 6 -->
  <rect x="420" y="322" width="188" height="196" rx="12" fill="#ffffff" stroke="#fce8f0" stroke-width="1"/>
  <rect x="420" y="322" width="188" height="86" rx="12" fill="#eff6ff" opacity="0.6"/>
  <rect x="420" y="376" width="188" height="32" fill="#eff6ff" fill-opacity="0.6"/>
  <circle cx="514" cy="380" r="34" fill="#bfdbfe" stroke="#ffffff" stroke-width="3"/>
  <text x="514" y="387" font-size="24" fill="#1d4ed8" text-anchor="middle" font-weight="800">I</text>
  <text x="514" y="434" font-size="12" font-weight="700" fill="#1e0a14" text-anchor="middle">@isla.wanderstyle</text>
  <text x="514" y="450" font-size="10" fill="#94a3b8" text-anchor="middle">Edinburgh · Travel</text>
  <line x1="440" y1="460" x2="588" y2="460" stroke="#fce8f0" stroke-width="1"/>
  <text x="460" y="480" font-size="10" fill="#94a3b8" text-anchor="middle">Followers</text>
  <text x="460" y="494" font-size="13" font-weight="700" fill="#1e0a14" text-anchor="middle">33.8K</text>
  <text x="514" y="480" font-size="10" fill="#94a3b8" text-anchor="middle">Eng. Rate</text>
  <text x="514" y="494" font-size="13" font-weight="700" fill="#c4005e" text-anchor="middle">4.9%</text>
  <text x="568" y="480" font-size="10" fill="#94a3b8" text-anchor="middle">Campaigns</text>
  <text x="568" y="494" font-size="13" font-weight="700" fill="#1e0a14" text-anchor="middle">2</text>
  <rect x="440" y="504" width="148" height="6" rx="3" fill="#fce8f0"/>
  <rect x="440" y="504" width="80" height="6" rx="3" fill="url(#pinkGrad)"/>

  <!-- Page indicator -->
  <text x="310" y="552" font-size="11" fill="#94a3b8" text-anchor="middle">Showing 6 of 2,200+  ·</text>
  <text x="410" y="552" font-size="11" fill="#c4005e">Load more</text>

  <!-- ── RIGHT PANEL: Campaign Analytics ── -->
  <rect x="630" y="66" width="630" height="642" rx="12" fill="#ffffff" stroke="#fce8f0" stroke-width="1.5"/>
  <rect x="630" y="66" width="630" height="52" rx="12" fill="#fff8fb"/>
  <rect x="630" y="96" width="630" height="22" fill="#fff8fb"/>
  <text x="654" y="95" font-size="13" font-weight="700" fill="#1e0a14">Campaign Analytics — Spring Collection 2026</text>
  <rect x="1144" y="76" width="100" height="26" rx="6" fill="url(#pinkGrad)"/>
  <text x="1194" y="93" font-size="10" fill="#ffffff" text-anchor="middle" font-weight="600">Export CSV</text>
  <line x1="630" y1="118" x2="1260" y2="118" stroke="#fce8f0" stroke-width="1"/>

  <!-- Analytics KPIs -->
  <rect x="650" y="128" width="138" height="70" rx="8" fill="#fff0f7" stroke="#ffc9e3" stroke-width="1"/>
  <text x="672" y="150" font-size="10" fill="#94a3b8">Total Reach</text>
  <text x="672" y="178" font-size="24" font-weight="800" fill="#c4005e">1.4M</text>

  <rect x="800" y="128" width="138" height="70" rx="8" fill="#fff0f7" stroke="#ffc9e3" stroke-width="1"/>
  <text x="822" y="150" font-size="10" fill="#94a3b8">Impressions</text>
  <text x="822" y="178" font-size="24" font-weight="800" fill="#1e0a14">3.2M</text>

  <rect x="950" y="128" width="138" height="70" rx="8" fill="#fff0f7" stroke="#ffc9e3" stroke-width="1"/>
  <text x="972" y="150" font-size="10" fill="#94a3b8">Engagements</text>
  <text x="972" y="178" font-size="24" font-weight="800" fill="#1e0a14">94.4K</text>

  <rect x="1100" y="128" width="140" height="70" rx="8" fill="#fff0f7" stroke="#ffc9e3" stroke-width="1"/>
  <text x="1122" y="150" font-size="10" fill="#94a3b8">Avg Eng. Rate</text>
  <text x="1122" y="178" font-size="24" font-weight="800" fill="#c4005e">5.8%</text>

  <!-- Reach over time chart -->
  <text x="654" y="224" font-size="12" font-weight="600" fill="#1e0a14">Reach Over Time</text>
  <text x="654" y="240" font-size="10" fill="#94a3b8">Daily cumulative reach across all contracted posts</text>

  <!-- Chart grid -->
  <line x1="654" y1="260" x2="1240" y2="260" stroke="#fce8f0" stroke-width="1"/>
  <line x1="654" y1="290" x2="1240" y2="290" stroke="#fce8f0" stroke-width="1"/>
  <line x1="654" y1="320" x2="1240" y2="320" stroke="#fce8f0" stroke-width="1"/>
  <line x1="654" y1="350" x2="1240" y2="350" stroke="#fce8f0" stroke-width="1"/>
  <text x="648" y="263" font-size="8" fill="#94a3b8" text-anchor="end">1.4M</text>
  <text x="648" y="293" font-size="8" fill="#94a3b8" text-anchor="end">1.0M</text>
  <text x="648" y="323" font-size="8" fill="#94a3b8" text-anchor="end">600K</text>
  <text x="648" y="353" font-size="8" fill="#94a3b8" text-anchor="end">200K</text>

  <!-- Reach area fill -->
  <polygon points="654,350 700,348 760,340 820,320 880,295 940,275 1000,267 1060,263 1120,261 1180,260 1240,260 1240,350" fill="#ffc9e3" opacity="0.25"/>
  <!-- Reach line -->
  <polyline points="654,350 700,348 760,340 820,320 880,295 940,275 1000,267 1060,263 1120,261 1180,260 1240,260" fill="none" stroke="#c4005e" stroke-width="2.5"/>
  <!-- Data point dots -->
  <circle cx="700" cy="348" r="3" fill="#c4005e"/>
  <circle cx="820" cy="320" r="3" fill="#c4005e"/>
  <circle cx="940" cy="275" r="3" fill="#c4005e"/>
  <circle cx="1060" cy="263" r="3" fill="#c4005e"/>
  <circle cx="1180" cy="260" r="3" fill="#c4005e"/>
  <!-- X axis labels -->
  <text x="700" y="365" font-size="8" fill="#94a3b8" text-anchor="middle">Mar 1</text>
  <text x="820" y="365" font-size="8" fill="#94a3b8" text-anchor="middle">Mar 8</text>
  <text x="940" y="365" font-size="8" fill="#94a3b8" text-anchor="middle">Mar 15</text>
  <text x="1060" y="365" font-size="8" fill="#94a3b8" text-anchor="middle">Mar 22</text>
  <text x="1180" y="365" font-size="8" fill="#94a3b8" text-anchor="middle">Mar 29</text>

  <!-- Engagement by influencer chart -->
  <text x="654" y="392" font-size="12" font-weight="600" fill="#1e0a14">Top Performers by Engagement</text>

  <!-- Bars -->
  <!-- Sophie -->
  <text x="654" y="420" font-size="10" fill="#64748b">@sophiastyle.uk</text>
  <rect x="798" y="408" width="390" height="20" rx="4" fill="#fce8f0"/>
  <rect x="798" y="408" width="320" height="20" rx="4" fill="url(#barGrad)"/>
  <text x="1124" y="422" font-size="10" fill="#c4005e" font-weight="600">38.4K eng</text>

  <!-- Rosie -->
  <text x="654" y="450" font-size="10" fill="#64748b">@rosie.beautyedits</text>
  <rect x="798" y="438" width="390" height="20" rx="4" fill="#fce8f0"/>
  <rect x="798" y="438" width="268" height="20" rx="4" fill="url(#barGrad)"/>
  <text x="1072" y="452" font-size="10" fill="#c4005e" font-weight="600">26.2K eng</text>

  <!-- Zoe -->
  <text x="654" y="480" font-size="10" fill="#64748b">@zoe_fitlooks</text>
  <rect x="798" y="468" width="390" height="20" rx="4" fill="#fce8f0"/>
  <rect x="798" y="468" width="200" height="20" rx="4" fill="url(#barGrad)" opacity="0.85"/>
  <text x="1004" y="482" font-size="10" fill="#c4005e" font-weight="600">19.8K eng</text>

  <!-- Jessica -->
  <text x="654" y="510" font-size="10" fill="#64748b">@jessicapalmer_</text>
  <rect x="798" y="498" width="390" height="20" rx="4" fill="#fce8f0"/>
  <rect x="798" y="498" width="106" height="20" rx="4" fill="url(#barGrad)" opacity="0.7"/>
  <text x="910" y="512" font-size="10" fill="#c4005e" font-weight="600">10.0K eng</text>

  <!-- Platform breakdown -->
  <text x="654" y="542" font-size="12" font-weight="600" fill="#1e0a14">Platform Breakdown</text>
  <line x1="654" y1="556" x2="1240" y2="556" stroke="#fce8f0" stroke-width="1"/>

  <!-- Platform stats -->
  <rect x="654" y="566" width="176" height="80" rx="8" fill="#fff0f7" stroke="#ffc9e3" stroke-width="1"/>
  <text x="742" y="590" font-size="11" fill="#94a3b8" text-anchor="middle">Instagram Reels</text>
  <text x="742" y="616" font-size="22" font-weight="800" fill="#c4005e" text-anchor="middle">64%</text>
  <text x="742" y="634" font-size="9" fill="#94a3b8" text-anchor="middle">2.1M impressions</text>

  <rect x="846" y="566" width="176" height="80" rx="8" fill="#fff0f7" stroke="#ffc9e3" stroke-width="1"/>
  <text x="934" y="590" font-size="11" fill="#94a3b8" text-anchor="middle">Instagram Stories</text>
  <text x="934" y="616" font-size="22" font-weight="800" fill="#1e0a14" text-anchor="middle">28%</text>
  <text x="934" y="634" font-size="9" fill="#94a3b8" text-anchor="middle">880K impressions</text>

  <rect x="1038" y="566" width="176" height="80" rx="8" fill="#f8fafc" stroke="#e2e8f0" stroke-width="1"/>
  <text x="1126" y="590" font-size="11" fill="#94a3b8" text-anchor="middle">TikTok</text>
  <text x="1126" y="616" font-size="22" font-weight="800" fill="#64748b" text-anchor="middle">8%</text>
  <text x="1126" y="634" font-size="9" fill="#94a3b8" text-anchor="middle">240K impressions</text>

  <!-- Acquisition note at bottom -->
  <rect x="654" y="658" width="576" height="38" rx="8" fill="#ffc9e3" opacity="0.2" stroke="#ffc9e3" stroke-width="1.5"/>
  <text x="942" y="674" font-size="11" fill="#c4005e" text-anchor="middle" font-weight="600">✦  Platform acquired. 100 brands · 2,200+ influencers · clean exit.</text>
  <text x="942" y="690" font-size="10" fill="#94a3b8" text-anchor="middle">Built by Esseal — Ruby on Rails · React · GraphQL · Social Media APIs</text>

  </g>
</svg>
